<?xml version="1.0" encoding="UTF-8" standalone="no"?>
<!DOCTYPE svg PUBLIC "-//W3C//DTD SVG 1.1//EN" "http://www.w3.org/Graphics/SVG/1.1/DTD/svg11.dtd">
<svg version="1.1" xmlns="http://www.w3.org/2000/svg" xmlns:xlink="http://www.w3.org/1999/xlink" preserveAspectRatio="xMidYMid meet" viewBox="0 0 640 640" width="640" height="640"><defs><path d="M467.28 409.1C452.59 409.1 440.63 397.14 440.63 382.44C440.63 367.75 452.59 355.8 467.28 355.8C481.98 355.8 493.93 367.75 493.93 382.44C493.93 397.14 481.98 409.1 467.28 409.1M172.72 409.1C158.02 409.1 146.07 397.14 146.07 382.44C146.07 367.75 158.02 355.8 172.72 355.8C187.41 355.8 199.37 367.75 199.37 382.44C199.37 397.14 187.42 409.1 172.72 409.1M476.84 248.57C508.8 193.22 526.55 162.47 530.1 156.32C533.15 151.02 531.34 144.25 526.04 141.19C520.74 138.14 513.97 139.95 510.91 145.24C505.52 154.59 462.37 229.32 456.98 238.66C415.74 219.84 369.42 209.35 320 209.35C270.58 209.35 224.26 219.84 183.02 238.66C177.63 229.32 134.48 154.59 129.09 145.24C126.03 139.95 119.26 138.14 113.96 141.19C108.66 144.25 106.84 151.02 109.9 156.32C115.23 165.55 157.83 239.35 163.16 248.57C71.7 298.31 9.15 390.9 0 500.29C64 500.29 576 500.29 640 500.29C630.84 390.91 568.29 298.31 476.84 248.57" id="aEkMu3kc"></path></defs><g><g><g><use xlink:href="#aEkMu3kc" opacity="1" fill="#ffffff" fill-opacity="1"></use><g><use xlink:href="#aEkMu3kc" opacity="1" fill-opacity="0" stroke="#000000" stroke-width="1" stroke-opacity="0"></use></g></g></g></g></svg>