<?xml version="1.0" encoding="UTF-8" standalone="no"?>
<!DOCTYPE svg PUBLIC "-//W3C//DTD SVG 1.1//EN" "http://www.w3.org/Graphics/SVG/1.1/DTD/svg11.dtd">
<svg version="1.1" xmlns="http://www.w3.org/2000/svg" xmlns:xlink="http://www.w3.org/1999/xlink" preserveAspectRatio="xMidYMid meet" viewBox="0 0 640 640" width="640" height="640"><defs><path d="M550.32 480.76C551.12 463 541.04 449.98 536.25 444.84C539.14 433.8 547.59 395.59 536.26 362.4C524.08 326.87 486.9 272.61 448.53 219.28C432.83 197.38 432.08 173.57 431.22 146C430.4 119.7 429.47 89.9 414.81 56.77C398.87 20.69 366.88 0 327.03 0C303.33 0 279 7.41 260.28 20.32C221.95 46.78 227.01 104.47 230.37 142.64C230.83 147.86 231.26 152.8 231.51 157.02C233.74 194.4 231.71 214.11 229.05 220.09C227.34 224.01 218.88 235.15 209.92 246.94C200.66 259.13 190.16 272.96 181.56 285.84C171.29 301.34 163 325.03 154.99 347.95C149.12 364.71 143.58 380.55 138.19 390.01C127.97 408.22 130.51 425.19 132.63 433.04C128.76 435.73 123.17 441.02 118.46 451C112.75 463.17 101.18 469.71 77.12 474.33C66.06 476.6 58.43 481.25 54.44 488.15C48.64 498.21 51.8 510.84 54.69 519.47C58.95 532.16 56.29 540.2 51.46 554.78C50.35 558.14 49.09 561.96 47.81 566.16C45.8 572.79 46.53 578.82 49.97 584.08C59.05 597.98 85.57 602.88 112.87 606.1C129.17 608.03 147.01 614.55 164.27 620.86C181.18 627.04 198.66 633.43 214.55 635.37C216.96 635.67 219.36 635.82 221.66 635.82C245.65 635.82 256.49 619.9 259.93 613.36C268.55 611.6 298.27 605.97 328.91 605.22C359.49 604.34 389.09 610.38 397.47 612.26C400.11 617.31 407.05 628.83 418.13 634.76C424.22 638.09 432.69 640 441.36 640C441.37 640 441.36 640 441.37 640C450.63 640 468.26 637.81 482.21 623.13C496.13 608.38 530.9 589.56 556.29 575.81C561.96 572.74 567.26 569.87 571.9 567.28C586.17 559.37 593.95 548.08 593.25 536.29C592.68 526.49 586.19 517.9 576.34 513.87C557.57 506.18 549.54 495.98 550.32 480.76ZM224.1 471.76C208.87 460.01 191.6 446.7 186.84 435.43C177.01 412.18 184.76 371.29 198.27 350.23C204.95 339.69 210.4 323.7 215.68 308.24C221.37 291.55 227.26 274.28 233.85 266.73C244.28 254.93 253.92 231.98 255.63 213.89C265.4 223.21 280.55 235.05 294.55 235.05C296.7 235.05 298.79 234.76 300.79 234.2C310.37 231.43 324.46 223.29 338.08 215.43C349.82 208.64 364.31 200.27 369.76 199.51C379.1 212.93 433.4 333.08 438.94 371.67C443.33 402.2 438.7 427.44 436.37 437.32C434.49 437.07 432.25 436.86 429.9 436.86C414.78 436.86 410.78 445.12 409.73 450.04C407.05 462.85 406.77 503.8 406.74 513C401.27 519.95 373.62 552.67 333.91 558.55C317.74 560.9 302.64 562.09 289.03 562.09C277.39 562.09 269.97 561.19 266.89 560.73C264.89 558.44 248.93 540.18 246.94 537.9C254.8 534.01 262.67 525.82 260.6 511.03C258.82 498.52 242.73 486.12 224.1 471.76ZM284.07 135.47C284.01 134.12 283.87 132.75 283.66 131.38C281.48 118.84 273.16 109.74 263.89 109.74C263.21 109.74 262.52 109.79 261.76 109.9C256.24 110.82 251.91 114.97 249.54 120.84C251.62 107.95 258.93 98.41 267.59 98.41C277.77 98.41 286.37 112.12 286.37 128.35C286.37 130.4 286.22 132.43 285.91 134.61C285.29 134.88 284.68 135.16 284.07 135.47ZM366.43 134.77C366.43 120.05 357.09 108.52 345.17 108.52C333.52 108.52 324.04 120.29 324.04 134.77C324.04 135.75 324.09 136.74 324.18 137.73C323.56 137.49 322.96 137.26 322.37 137.04C321.03 132.98 320.35 128.74 320.35 124.41C320.35 106.82 331.6 92.5 345.43 92.5C359.26 92.5 370.51 106.82 370.51 124.41C370.51 131.74 368.49 138.72 364.99 144.28C365.92 141.31 366.43 138.1 366.43 134.77ZM349.48 182.25C347.12 183.48 344.17 185.02 340.48 187.26C340.24 187.41 338.27 188.61 338.02 188.76C328.12 194.76 304.94 208.81 298.65 209.64C294.37 210.21 291.73 208.56 285.78 204.52C284.44 203.6 283.02 202.63 281.49 201.66C270.78 194.63 263.89 186.88 263.11 183.85C266.6 181.15 275.26 174.39 279.69 170.39C288.69 162.02 297.75 156.4 302.23 156.4C302.47 156.4 302.68 156.42 302.91 156.46C308.17 157.39 321.16 162.57 330.65 166.36C335.04 168.11 338.83 169.62 341.49 170.58C349.89 173.46 354.26 177.15 354.8 178.53C354.6 179.42 354.17 179.81 349.48 182.25ZM439.53 502.04C439.33 498.15 438.99 493.92 438.65 489.82C438.03 482.16 437.1 470.78 438.06 467.4C438.25 467.31 438.46 467.24 438.69 467.17C438.73 476.97 440.86 496.5 456.48 503.32C461.14 505.35 466.46 506.38 472.3 506.38C487.95 506.38 505.32 498.7 512.43 491.59C516.62 487.4 520.14 482.27 522.61 478.22C523.15 479.8 523.48 481.86 523.31 484.52C522.38 498.97 529.4 518.13 542.76 525.2C542.95 525.3 544.51 526.12 544.7 526.22C549.46 528.72 562.1 535.35 562.31 538.5C562.31 538.5 562.2 538.87 561.5 539.53C558.33 542.42 547.18 548.11 536.41 553.62C517.29 563.38 495.62 574.44 485.89 584.68C472.18 599.1 456.69 608.78 447.33 608.78C446.2 608.78 445.17 608.64 444.26 608.35C434.1 605.18 425.73 590.52 430.23 569.6C434.96 548.24 440.42 519.18 439.53 502.04ZM82.79 502.71C83.42 499.96 96.99 497.02 102.79 495.76C110.94 493.99 119.36 492.16 124.87 488.82C132.33 484.3 136.36 475.98 139.92 468.64C142.5 463.33 145.16 457.83 148.32 456.03C148.5 455.93 148.77 455.8 149.3 455.8C155.23 455.8 167.67 468.28 174.85 479.44C176.67 482.25 180.04 487.89 183.94 494.42C195.6 513.93 211.56 540.65 219.9 549.61C227.42 557.66 239.58 573.14 236.59 586.41C234.4 596.71 222.73 605.09 219.98 606.94C218.98 607.17 217.75 607.29 216.29 607.29C200.33 607.29 168.74 594.01 151.77 586.87C151.52 586.77 149.51 585.92 149.26 585.82C139.78 581.84 124.3 579.34 109.34 576.92C97.43 574.99 81.13 572.35 78.43 569.97C76.24 567.51 78.78 559.52 81.02 552.47C82.63 547.41 84.3 542.17 85.21 536.69C86.51 527.94 84.98 520.82 83.76 515.1C82.72 510.25 81.91 506.42 82.79 502.71Z" id="a2FqY2AQxw"></path></defs><g><g><g><use xlink:href="#a2FqY2AQxw" opacity="1" fill="#ffffff" fill-opacity="1"></use><g><use xlink:href="#a2FqY2AQxw" opacity="1" fill-opacity="0" stroke="#000000" stroke-width="1" stroke-opacity="0"></use></g></g></g></g></svg>