<svg width="106.726" height="106.726" xmlns="http://www.w3.org/2000/svg">

 <g>
  <title>Layer 1</title>
  <g id="svg_1">
   <g id="svg_2">
    <path id="svg_3" fill="#ffffff" d="m11.703,67.563l-3.6,1.4c-5.4,2.3 -8.2,4.7 -8.1,6.8c0.3,3.1 3.8,5.4 10.2,7.1c8.3,2.2 16.7,2.7 25.4,1.4l0,-8.7l0,0l-6.9,2.6c-7.2,2.5 -10.9,0.4 -10.9,0.4c-1.1,-0.7 -1.6,-2.4 1.4,-3.5l3.8,-1.4l12.6,-4.5l0,-10.1l-3.2,1.1l-20.7,7.4z"/>
    <path id="svg_4" fill="#ffffff" d="m64.303,32.463l0,25.9c5.4,2.6 10.2,2.8 13.8,0.1c3.7,-2.6 5.7,-7.1 5.7,-13.9c0,-7.1 -1.4,-12.5 -4.5,-16.1c-2.8,-3.8 -7.8,-7 -15.2,-9.5c-9.2,-3 -17,-5.6 -23.2,-6.9l0,77.5l16.7,5.1l0,-64.4c-0.1,-3.9 6.7,-3.6 6.7,2.2z"/>
    <path id="svg_5" fill="#ffffff" d="m106.703,72.463c-0.1,-2.7 -3.3,-4.8 -9,-6.7c-6.4,-2.1 -11.9,-3.1 -17.9,-2.9c-5.5,0.1 -12.1,1.9 -18,3.8l0,9.9l16.2,-5.7c0,0 4.9,-1.8 9.1,-0.7c3.2,0.8 3,2.6 -0.2,3.7l-3.7,1.5l-21.4,7.7l0,10.1l10,-3.6l24,-8.5l2.8,-1.3c5.8,-2.1 8.4,-4.4 8.1,-7.3z"/>
   </g>
  </g>
  <g id="svg_6"/>
  <g id="svg_7"/>
  <g id="svg_8"/>
  <g id="svg_9"/>
  <g id="svg_10"/>
  <g id="svg_11"/>
  <g id="svg_12"/>
  <g id="svg_13"/>
  <g id="svg_14"/>
  <g id="svg_15"/>
  <g id="svg_16"/>
  <g id="svg_17"/>
  <g id="svg_18"/>
  <g id="svg_19"/>
  <g id="svg_20"/>
 </g>
</svg>