<?xml version="1.0" encoding="UTF-8" standalone="no"?>
<!DOCTYPE svg PUBLIC "-//W3C//DTD SVG 1.1//EN" "http://www.w3.org/Graphics/SVG/1.1/DTD/svg11.dtd">
<svg version="1.1" xmlns="http://www.w3.org/2000/svg" xmlns:xlink="http://www.w3.org/1999/xlink" preserveAspectRatio="xMidYMid meet" viewBox="0 0 640 640" width="640" height="640"><defs><path d="M5.33 219.41C1.92 222.19 0 226.66 0 231.19C0 231.2 0 231.3 0 231.31C0 233.24 0.37 235.17 1.07 237.05C7.2 252.77 56.27 378.58 62.41 394.3C65.07 401.19 72.01 404.57 78.41 402.03C118.52 385.85 257.41 334.64 347.34 362.17C347.34 362.17 257.19 368.21 175.59 440.56C171 444.67 169.45 451.79 171.85 457.83C178.47 474.74 191.75 508.8 199.27 528.01C200.33 530.82 208.77 553.28 209.83 556.09C212.34 562.73 220.39 563.46 223.91 557.42C242.95 524.99 275.01 508.8 305.84 494.61C337.41 480.12 370.38 469.37 403.98 462.97C439.72 456.08 476.31 454.27 512.47 457.89C518.5 458.5 524.1 454.27 525.91 447.75C528.68 437.74 550.87 357.63 553.65 347.62C555.25 341.7 553.33 335.24 548.85 331.62C518.02 306.25 395.77 221.28 180.82 255.4C180.82 255.4 364.3 136.19 597.12 267.24C604.21 271.23 612.69 267 615.09 258.54C617.53 249.72 637.03 179.08 639.47 170.25C639.79 168.86 640 167.48 640 166.03C640 165.99 640 165.7 640 165.66C640 160.65 637.55 155.88 633.49 153.28C604.32 134.62 505.38 78.46 369.26 78.46C264.93 78.46 138.84 111.43 5.33 219.41" id="c1ncNjS24f"></path></defs><g><g><g><use xlink:href="#c1ncNjS24f" opacity="1" fill="#ffffff" fill-opacity="1"></use><g><use xlink:href="#c1ncNjS24f" opacity="1" fill-opacity="0" stroke="#000000" stroke-width="1" stroke-opacity="0"></use></g></g></g></g></svg>