<?xml version="1.0" encoding="UTF-8" standalone="no"?>
<!DOCTYPE svg PUBLIC "-//W3C//DTD SVG 1.1//EN" "http://www.w3.org/Graphics/SVG/1.1/DTD/svg11.dtd">
<svg version="1.1" xmlns="http://www.w3.org/2000/svg" xmlns:xlink="http://www.w3.org/1999/xlink" preserveAspectRatio="xMidYMid meet" viewBox="0 0 640 640" width="640" height="640"><defs><path d="M300.19 559.57C297.28 559.57 294.82 562.03 294.82 564.93C294.82 567.62 294.82 589.07 294.82 591.75C294.82 594.66 297.28 597.11 300.19 597.11C304.15 597.11 335.85 597.11 339.81 597.11C342.72 597.11 345.17 594.66 345.17 591.75C345.17 589.07 345.17 567.62 345.17 564.93C345.18 562.03 342.72 559.57 339.81 559.57C331.89 559.57 304.15 559.57 300.19 559.57Z" id="dcnXk89vP"></path><path d="M148.83 0C129.11 0 113.07 16.04 113.07 35.76C113.07 92.6 113.07 547.4 113.07 604.24C113.07 623.96 129.11 640 148.83 640C183.06 640 456.94 640 491.17 640C510.89 640 526.93 623.96 526.93 604.24C526.93 547.4 526.93 92.6 526.93 35.76C526.93 16.04 510.89 0 491.17 0C422.7 0 183.06 0 148.83 0ZM348.9 29.11C353.84 29.11 357.84 33.11 357.84 38.05C357.84 42.98 353.84 46.98 348.9 46.98C343.12 46.98 296.88 46.98 291.1 46.98C286.16 46.98 282.16 42.98 282.16 38.05C282.16 33.11 286.16 29.11 291.1 29.11C302.66 29.11 343.12 29.11 348.9 29.11ZM339.81 614.99C335.85 614.99 304.15 614.99 300.19 614.99C287.37 614.99 276.95 604.57 276.95 591.75C276.95 589.07 276.95 567.62 276.95 564.93C276.95 552.12 287.37 541.69 300.19 541.69C304.15 541.69 335.85 541.69 339.81 541.69C352.63 541.69 363.05 552.12 363.05 564.93C363.05 566.72 363.05 575.66 363.05 591.75C356.1 607.25 348.36 614.99 339.81 614.99ZM475.54 520.75C444.44 520.75 195.57 520.75 164.46 520.75C159.54 520.75 155.52 516.73 155.52 511.81C155.52 468.72 155.52 124.04 155.52 80.95C155.52 76.04 159.54 72.01 164.46 72.01C195.57 72.01 444.44 72.01 475.54 72.01C480.46 72.01 484.48 76.04 484.48 80.95C484.48 109.68 484.48 253.3 484.48 511.81C481.8 517.77 478.82 520.75 475.54 520.75Z" id="dzpdNAKMt"></path><path d="M289.57 180.01C282.7 181.48 227.74 193.3 220.87 194.77C215.29 195.97 211.23 200.98 211.23 206.69C211.23 213.61 211.23 268.97 211.23 275.89C211.23 282.61 216.7 288.08 223.42 288.08C230.29 288.08 285.26 288.08 292.13 288.08C298.85 288.08 304.32 282.61 304.32 275.89C304.32 267.49 304.32 200.29 304.32 191.89C304.31 188.21 302.66 184.76 299.78 182.43C296.95 180.15 293.14 179.24 289.57 180.01Z" id="c2Xr7dh1gG"></path><path d="M329.55 301.11C322.83 301.11 317.36 306.58 317.36 313.3C317.36 322.09 317.36 392.41 317.36 401.2C317.36 406.91 321.41 411.92 326.98 413.12C335.69 414.99 405.36 429.97 414.07 431.84C414.91 432.01 415.75 432.1 416.58 432.1C419.36 432.1 422.08 431.13 424.22 429.4C427.11 427.07 428.77 423.61 428.77 419.91C428.77 409.25 428.77 323.96 428.77 313.3C428.77 306.58 423.3 301.11 416.58 301.11C399.17 301.11 338.25 301.11 329.55 301.11Z" id="aF9zhci67"></path><path d="M414.02 157.36C405.31 159.24 335.7 174.2 327 176.07C321.41 177.26 317.36 182.28 317.36 187.99C317.36 196.78 317.36 267.1 317.36 275.89C317.36 282.61 322.83 288.08 329.55 288.08C338.25 288.08 407.88 288.08 416.58 288.08C423.3 288.08 428.77 282.61 428.77 275.89C428.77 265.23 428.77 179.94 428.77 169.28C428.77 165.58 427.11 162.12 424.24 159.8C421.41 157.51 417.56 156.6 414.02 157.36Z" id="g2vXhhaCUf"></path><path d="M223.42 301.11C216.7 301.11 211.23 306.58 211.23 313.3C211.23 320.22 211.23 375.58 211.23 382.5C211.23 388.21 215.29 393.22 220.86 394.41C227.74 395.89 282.73 407.71 289.61 409.19C290.44 409.37 291.29 409.46 292.13 409.46C294.91 409.46 297.63 408.49 299.77 406.76C302.66 404.44 304.32 400.98 304.32 397.27C304.32 388.87 304.32 321.68 304.32 313.29C304.31 306.57 298.84 301.11 292.13 301.11C278.39 301.11 230.29 301.11 223.42 301.11Z" id="b2X5P4pYuX"></path></defs><g><g><g><use xlink:href="#dcnXk89vP" opacity="1" fill="#ffffff" fill-opacity="1"></use><g><use xlink:href="#dcnXk89vP" opacity="1" fill-opacity="0" stroke="#000000" stroke-width="1" stroke-opacity="0"></use></g></g><g><use xlink:href="#dzpdNAKMt" opacity="1" fill="#ffffff" fill-opacity="1"></use><g><use xlink:href="#dzpdNAKMt" opacity="1" fill-opacity="0" stroke="#000000" stroke-width="1" stroke-opacity="0"></use></g></g><g><use xlink:href="#c2Xr7dh1gG" opacity="1" fill="#ffffff" fill-opacity="1"></use><g><use xlink:href="#c2Xr7dh1gG" opacity="1" fill-opacity="0" stroke="#000000" stroke-width="1" stroke-opacity="0"></use></g></g><g><use xlink:href="#aF9zhci67" opacity="1" fill="#ffffff" fill-opacity="1"></use><g><use xlink:href="#aF9zhci67" opacity="1" fill-opacity="0" stroke="#000000" stroke-width="1" stroke-opacity="0"></use></g></g><g><use xlink:href="#g2vXhhaCUf" opacity="1" fill="#ffffff" fill-opacity="1"></use><g><use xlink:href="#g2vXhhaCUf" opacity="1" fill-opacity="0" stroke="#000000" stroke-width="1" stroke-opacity="0"></use></g></g><g><use xlink:href="#b2X5P4pYuX" opacity="1" fill="#ffffff" fill-opacity="1"></use><g><use xlink:href="#b2X5P4pYuX" opacity="1" fill-opacity="0" stroke="#000000" stroke-width="1" stroke-opacity="0"></use></g></g></g></g></svg>