<svg width="1775.26" height="1775.26" xmlns="http://www.w3.org/2000/svg">

 <g>
  <title>Layer 1</title>
  <path stroke="null" id="svg_2" fill="#fff" d="m700.6407,412.27638c-70.53563,0.93264 -131.27217,14.75614 -190.93552,44.48561c-152.37792,75.9015 -240.3654,235.74053 -240.3654,437.1395c0,201.8589 86.55659,356.95808 239.45832,429.5123c41.30442,19.5982 82.71105,30.26606 145.56837,37.73995c31.81194,1.27759 61.56696,3.53892 92.54847,0c62.85733,-7.47389 104.26396,-18.14175 145.56837,-37.73995c152.91451,-72.55422 239.47109,-227.64063 239.47109,-429.5123c0,-201.39897 -88.00026,-361.238 -240.3654,-437.1395c-59.67613,-29.72947 -120.39989,-43.55297 -190.9483,-44.48561zm60.65988,141.97835c91.48808,24.37638 157.87155,106.92134 183.29555,227.33401c17.88623,84.56355 13.00585,182.27348 -12.57147,259.23538c-39.83519,119.85053 -126.30235,187.53714 -231.38396,186.45119c-105.08161,1.08595 -191.54877,-66.60066 -231.37118,-186.45119c-25.55176,-76.9619 -30.44492,-174.67183 -12.58424,-259.23538c25.43678,-120.41267 91.82025,-202.95763 183.30832,-227.33401c41.48328,-8.78981 82.81325,-7.2056 121.30698,0zm-668.17852,-141.97835a91.46252,91.46252 0 1 0 91.46252,91.46252a91.46252,91.46252 0 0 0 -91.46252,-91.46252zm-85.45786,279.06354l0,671.71743l170.91572,0l0,-671.71743l-170.91572,0zm1372.80662,670.31209c-73.23134,-12.54591 -143.66477,-22.25558 -203.45589,-56.21387c-0.7921,-0.70267 35.29976,-135.56486 36.92229,-137.9795c96.10017,32.6296 231.37118,78.3928 322.57819,36.46236c49.72372,-24.87464 74.21509,-70.85503 65.98742,-123.92603c-9.26251,-59.65058 -50.56693,-94.03048 -163.95287,-136.42084c-126.48121,-47.27076 -200.58131,-105.38823 -230.92403,-180.94479c-14.90945,-37.16503 -19.84094,-84.46134 -13.14638,-125.77854c18.65278,-114.91904 108.17337,-194.85772 245.56519,-219.29798c39.79687,-7.07784 124.92255,-7.14172 166.80189,-0.14053c60.35326,10.09295 129.57297,32.92344 129.57297,42.73532c0,3.61557 -35.36364,128.30816 -37.17781,131.06775c-59.67613,-23.63538 -126.60897,-40.52509 -183.24444,-40.88282c-80.13032,-1.00929 -167.0063,46.55531 -151.67525,130.58227c10.84672,52.6494 44.44729,78.35447 168.1178,128.60201c91.09202,37.05005 134.79831,62.60181 172.25719,100.62283c52.06171,51.98506 68.51704,112.97711 68.90032,173.43257c0.14053,50.34974 -4.56099,73.84459 -22.52388,112.72159q-65.46361,141.6334 -266.28766,164.22116c-25.04072,2.79792 -84.03974,3.43671 -104.25118,1.13705l-0.06388,0z"/>
 </g>
</svg>