<?xml version="1.0" encoding="UTF-8" standalone="no"?>
<!DOCTYPE svg PUBLIC "-//W3C//DTD SVG 1.1//EN" "http://www.w3.org/Graphics/SVG/1.1/DTD/svg11.dtd">
<svg version="1.1" xmlns="http://www.w3.org/2000/svg" xmlns:xlink="http://www.w3.org/1999/xlink" preserveAspectRatio="xMidYMid meet" viewBox="0 0 640 640" width="640" height="640"><defs><path d="M563.77 218.17C526.16 163.22 467.64 155.66 446.73 154.83C396.97 149.73 349.54 184.14 324.22 184.14C298.99 184.14 259.95 155.53 218.63 156.27C164.29 157.1 114.26 187.89 86.25 236.49C29.82 334.42 71.78 479.47 126.78 558.99C153.67 597.85 185.76 641.48 227.82 639.95C268.34 638.33 283.65 613.71 332.66 613.71C381.67 613.71 395.44 639.95 438.29 639.17C481.92 638.33 509.51 599.52 536.18 560.57C567.06 515.45 579.77 471.72 580.55 469.54C579.53 468.99 495.56 436.85 494.68 340.03C493.84 258.93 560.8 220.12 563.77 218.17Z" id="d8OLMugft4"></path><path d="M447.38 0C415.15 1.3 376.25 21.38 353.11 48.46C332.38 72.43 314.34 110.69 319.17 147.46C355.06 150.29 391.78 129.19 414.08 102.2C436.39 75.17 451.51 37.51 447.38 0Z" id="a2GsdmdSTd"></path></defs><g><g><g><use xlink:href="#d8OLMugft4" opacity="1" fill="#ffffff" fill-opacity="1"></use><g><use xlink:href="#d8OLMugft4" opacity="1" fill-opacity="0" stroke="#000000" stroke-width="1" stroke-opacity="0"></use></g></g><g><use xlink:href="#a2GsdmdSTd" opacity="1" fill="#ffffff" fill-opacity="1"></use><g><use xlink:href="#a2GsdmdSTd" opacity="1" fill-opacity="0" stroke="#000000" stroke-width="1" stroke-opacity="0"></use></g></g></g></g></svg>