<svg xmlns="http://www.w3.org/2000/svg" xmlns:xlink="http://www.w3.org/1999/xlink" version="1.1" style="" xml:space="preserve" width="512" height="512"><rect id="backgroundrect" width="100%" height="100%" x="0" y="0" fill="none" stroke="none"/>



















<g class="currentLayer" style=""><title>Layer 1</title><g id="svg_1" class="selected" fill="#ffffff" fill-opacity="1">
	<g id="svg_2" fill="#ffffff" fill-opacity="1">
		<path d="M120.5,120c-16.817,0-30.5,13.683-30.5,30.5s13.683,30.5,30.5,30.5s30.5-13.683,30.5-30.5S137.317,120,120.5,120z" id="svg_3" fill="#ffffff" fill-opacity="1"/>
	</g>
</g><g id="svg_4" class="selected" fill="#ffffff" fill-opacity="1">
	<g id="svg_5" fill="#ffffff" fill-opacity="1">
		<path d="M115,0C51.589,0,0,51.589,0,115v282c0,63.411,51.589,115,115,115h126V0H115z M120.5,211C87.141,211,60,183.859,60,150.5    S87.141,90,120.5,90s60.5,27.141,60.5,60.5S153.859,211,120.5,211z" id="svg_6" fill="#ffffff" fill-opacity="1"/>
	</g>
</g><g id="svg_7" class="selected" fill="#ffffff" fill-opacity="1">
	<g id="svg_8" fill="#ffffff" fill-opacity="1">
		<path d="M391.5,257c-16.817,0-30.5,13.683-30.5,30.5c0,16.817,13.683,30.5,30.5,30.5c16.817,0,30.5-13.683,30.5-30.5    C422,270.683,408.317,257,391.5,257z" id="svg_9" fill="#ffffff" fill-opacity="1"/>
	</g>
</g><g id="svg_10" class="selected" fill="#ffffff" fill-opacity="1">
	<g id="svg_11" fill="#ffffff" fill-opacity="1">
		<path d="M397,0H271v512h126c63.411,0,115-51.589,115-115V115C512,51.589,460.411,0,397,0z M391.5,348    c-33.359,0-60.5-27.141-60.5-60.5s27.141-60.5,60.5-60.5s60.5,27.141,60.5,60.5S424.859,348,391.5,348z" id="svg_12" fill="#ffffff" fill-opacity="1"/>
	</g>
</g><g id="svg_13">
</g><g id="svg_14">
</g><g id="svg_15">
</g><g id="svg_16">
</g><g id="svg_17">
</g><g id="svg_18">
</g><g id="svg_19">
</g><g id="svg_20">
</g><g id="svg_21">
</g><g id="svg_22">
</g><g id="svg_23">
</g><g id="svg_24">
</g><g id="svg_25">
</g><g id="svg_26">
</g><g id="svg_27">
</g></g></svg>