<?xml version="1.0" encoding="UTF-8" standalone="no"?>
<!DOCTYPE svg PUBLIC "-//W3C//DTD SVG 1.1//EN" "http://www.w3.org/Graphics/SVG/1.1/DTD/svg11.dtd">
<svg version="1.1" xmlns="http://www.w3.org/2000/svg" xmlns:xlink="http://www.w3.org/1999/xlink" preserveAspectRatio="xMidYMid meet" viewBox="0 0 640 640" width="640" height="640"><defs><path d="M141.72 55.07C143.53 53.15 146.15 51.09 147.86 49.97C197.95 17.41 255.83 0 320.05 0C380.12 0 436.37 16.59 484.4 45.44C487.88 47.51 497.39 54.02 502.29 59.94C502.29 59.94 502.29 59.96 502.29 59.97C455.95 8.88 319.75 118.49 319.75 118.49C272.64 82.18 229.32 57.43 197.06 48.62C170.1 41.24 151.44 47.41 142.59 54.3C142.27 54.54 142.02 54.82 141.72 55.07ZM550.39 97.94C538.67 85.09 524.27 81.98 511.29 82.82C499.47 86.53 444.88 106.2 377.6 169.72C377.6 169.72 453.34 243.37 499.72 318.66C546.06 393.94 573.77 453.11 556.73 535.24C608.44 478.41 639.98 402.9 639.98 319.98C639.98 236.06 607.67 159.68 554.76 102.6C553.35 101.03 551.8 99.56 550.39 97.94ZM347.68 254.59C338.85 245.81 329.53 236.65 319.73 227.18C319.73 227.18 304.98 241.93 285.78 261.33C285.78 261.33 285.78 261.31 285.78 261.3C261.2 286.12 229.34 318.51 211.66 337.41C180.17 371.01 89.96 476.54 84.89 535.71C84.89 535.71 64.82 488.78 108.86 380.54C137.64 309.78 224.59 203.53 260.9 168.9C260.9 168.9 227.73 132.39 186.09 107.17C186.07 107.16 185.87 107.11 185.84 107.1C185.84 107.1 185.37 106.72 184.62 106.25C164.6 94.31 142.74 85.11 121.7 83.89C100.21 85.41 86.6 101.13 86.6 101.13C32.91 158.38 0.05 235.34 0.05 320C0.05 496.71 143.31 640 320.05 640C413.84 640 498.23 599.56 556.78 535.27C556.75 535.17 550.04 492.98 506.99 432.47C496.86 418.29 459.88 374.05 439.16 350.82C418.62 327.76 388.05 294.73 347.68 254.59Z" id="c4UZVN3iSU"></path><path d="M141.72 55.07C143.53 53.15 146.15 51.09 147.86 49.97C197.95 17.41 255.83 0 320.05 0C380.12 0 436.37 16.59 484.4 45.44C487.88 47.51 497.39 54.02 502.29 59.94C502.29 59.94 502.29 59.96 502.29 59.97C455.95 8.88 319.75 118.49 319.75 118.49C272.64 82.18 229.32 57.43 197.06 48.62C170.1 41.24 151.44 47.41 142.59 54.3C142.27 54.54 142.02 54.82 141.72 55.07ZM550.39 97.94C538.67 85.09 524.27 81.98 511.29 82.82C499.47 86.53 444.88 106.2 377.6 169.72C377.6 169.72 453.34 243.37 499.72 318.66C546.06 393.94 573.77 453.11 556.73 535.24C608.44 478.41 639.98 402.9 639.98 319.98C639.98 236.06 607.67 159.68 554.76 102.6C553.35 101.03 551.8 99.56 550.39 97.94ZM347.68 254.59C338.85 245.81 329.53 236.65 319.73 227.18C319.73 227.18 304.98 241.93 285.78 261.33C285.78 261.33 285.78 261.31 285.78 261.3C261.2 286.12 229.34 318.51 211.66 337.41C180.17 371.01 89.96 476.54 84.89 535.71C84.89 535.71 64.82 488.78 108.86 380.54C137.64 309.78 224.59 203.53 260.9 168.9C260.9 168.9 227.73 132.39 186.09 107.17C186.07 107.16 185.87 107.11 185.84 107.1C185.84 107.1 185.37 106.72 184.62 106.25C164.6 94.31 142.74 85.11 121.7 83.89C100.21 85.41 86.6 101.13 86.6 101.13C32.91 158.38 0.05 235.34 0.05 320C0.05 496.71 143.31 640 320.05 640C413.84 640 498.23 599.56 556.78 535.27C556.75 535.17 550.04 492.98 506.99 432.47C496.86 418.29 459.88 374.05 439.16 350.82C418.62 327.76 388.05 294.73 347.68 254.59Z" id="j1myXu0weY"></path></defs><g><g><g><use xlink:href="#c4UZVN3iSU" opacity="1" fill="#ffffff" fill-opacity="1"></use><g><use xlink:href="#c4UZVN3iSU" opacity="1" fill-opacity="0" stroke="#000000" stroke-width="1" stroke-opacity="0"></use></g></g><g><use xlink:href="#j1myXu0weY" opacity="1" fill="#ffffff" fill-opacity="1"></use><g><use xlink:href="#j1myXu0weY" opacity="1" fill-opacity="0" stroke="#000000" stroke-width="1" stroke-opacity="0"></use></g></g></g></g></svg>